<?xml version="1.0" standalone="no"?>
<!DOCTYPE svg PUBLIC "-//W3C//DTD SVG 20010904//EN"
 "http://www.w3.org/TR/2001/REC-SVG-20010904/DTD/svg10.dtd">
<svg version="1.0" xmlns="http://www.w3.org/2000/svg"
 width="145.000000pt" height="60.000000pt" viewBox="0 0 145.000000 60.000000"
 preserveAspectRatio="xMidYMid meet">

<g transform="translate(0.000000,60.000000) scale(0.100000,-0.100000)"
fill="#000000" stroke="none">
<path d="M184 533 c-24 -81 -14 -158 30 -247 19 -39 46 -98 61 -130 35 -82 43
-63 9 24 -25 65 -27 75 -16 116 25 92 7 228 -36 277 -24 27 -30 21 -48 -40z
m32 -87 c-1 -118 -12 -132 -22 -29 -5 47 8 143 19 143 2 0 3 -51 3 -114z m43
-53 c1 -78 -13 -105 -23 -45 -8 52 -8 147 1 156 12 12 21 -33 22 -111z"/>
<path d="M430 405 c0 -68 3 -85 14 -85 11 0 16 15 18 53 l3 52 30 -52 c22 -39
36 -53 53 -53 21 0 22 4 22 85 0 78 -2 85 -20 85 -18 0 -20 -7 -20 -57 l-1
-58 -30 58 c-21 40 -35 57 -49 57 -18 0 -20 -7 -20 -85z"/>
<path d="M635 478 c-3 -7 -16 -46 -29 -85 -24 -69 -24 -73 -6 -73 10 0 22 9
25 20 4 14 15 20 35 20 20 0 31 -6 35 -20 4 -11 15 -20 27 -20 12 0 18 5 15
13 -2 6 -15 45 -28 85 -20 62 -26 72 -46 72 -13 0 -26 -6 -28 -12z m39 -60 c5
-24 3 -28 -14 -28 -23 0 -23 0 -10 36 12 31 15 30 24 -8z"/>
<path d="M740 475 c0 -8 9 -15 20 -15 18 0 20 -7 20 -70 0 -63 2 -70 20 -70
18 0 20 7 20 70 0 63 2 70 20 70 11 0 20 7 20 15 0 12 -13 15 -60 15 -47 0
-60 -3 -60 -15z"/>
<path d="M880 425 c0 -82 22 -111 78 -101 19 3 40 10 46 16 6 6 12 42 14 80 4
65 3 70 -16 70 -19 0 -21 -7 -24 -67 -3 -65 -4 -68 -28 -68 -24 0 -25 3 -28
68 -3 59 -5 67 -22 67 -18 0 -20 -7 -20 -65z"/>
<path d="M1040 405 c0 -69 3 -85 15 -85 10 0 15 10 15 30 0 17 4 30 10 30 5 0
16 -13 25 -30 14 -26 21 -30 60 -30 35 0 45 4 50 20 4 14 15 20 35 20 20 0 31
-6 35 -20 4 -11 15 -20 27 -20 12 0 18 5 15 13 -2 6 -15 45 -28 85 -21 67 -25
73 -48 70 -22 -3 -28 -14 -50 -80 -14 -43 -28 -78 -32 -78 -4 0 -14 11 -23 25
-15 23 -15 28 -1 47 20 30 19 44 -5 68 -13 13 -33 20 -60 20 l-40 0 0 -85z
m75 30 c0 -13 -8 -21 -22 -23 -19 -3 -23 1 -23 23 0 22 4 26 23 23 14 -2 22
-10 22 -23z m149 -17 c5 -24 3 -28 -14 -28 -23 0 -23 0 -10 36 12 31 15 30 24
-8z"/>
<path d="M1340 405 l0 -85 50 0 c38 0 50 4 50 15 0 10 -10 15 -30 15 l-30 0 0
70 c0 63 -2 70 -20 70 -18 0 -20 -7 -20 -85z"/>
<path d="M13 404 c-10 -27 5 -114 30 -168 35 -76 154 -183 234 -210 57 -20 65
-3 9 18 -25 10 -63 30 -85 47 -39 28 -41 31 -41 84 0 71 -31 152 -79 204 -41
44 -58 50 -68 25z m55 -36 c34 -37 72 -129 71 -173 l-1 -40 -18 40 c-11 22
-22 49 -25 60 -4 13 -8 16 -12 7 -2 -7 0 -27 6 -45 l11 -32 -20 23 c-34 41
-66 182 -42 182 5 0 18 -10 30 -22z"/>
</g>
</svg>
