<?xml version="1.0" standalone="no"?>
<!DOCTYPE svg PUBLIC "-//W3C//DTD SVG 20010904//EN"
 "http://www.w3.org/TR/2001/REC-SVG-20010904/DTD/svg10.dtd">
<svg version="1.0" xmlns="http://www.w3.org/2000/svg"
 width="3000.000000pt" height="3000.000000pt" viewBox="0 0 3000.000000 3000.000000"
 preserveAspectRatio="xMidYMid meet">

<g transform="translate(0.000000,3000.000000) scale(0.100000,-0.100000)"
fill="#000000" stroke="none">
<path d="M14715 28494 c-391 -13 -745 -39 -1075 -80 -1662 -202 -3227 -759
-4640 -1652 -173 -109 -566 -378 -576 -393 -3 -5 455 -9 1065 -9 l1069 0 154
71 c1065 494 2178 796 3333 903 348 33 524 40 955 40 431 0 607 -7 955 -40
1156 -107 2257 -405 3334 -903 l154 -71 1069 0 c609 0 1067 4 1064 9 -10 15
-403 284 -576 393 -1624 1026 -3459 1612 -5380 1717 -195 11 -751 20 -905 15z"/>
<path d="M14403 22780 c495 -1626 532 -3619 108 -5747 -122 -609 -223 -997
-407 -1554 -591 -1797 -871 -2965 -984 -4104 -11 -115 -22 -216 -23 -224 -1
-8 -47 66 -101 165 -829 1499 -1903 2689 -3046 3375 -149 89 -516 276 -525
267 -3 -2 66 -61 153 -130 240 -192 406 -341 653 -588 257 -256 375 -384 596
-649 522 -625 1015 -1381 1444 -2216 408 -795 785 -1733 976 -2430 114 -418
197 -649 347 -960 128 -266 269 -500 431 -717 42 -55 74 -102 72 -104 -11 -11
-504 50 -809 101 -1023 170 -2118 542 -3027 1029 l-125 66 -1008 -2 -1009 -3
130 -98 c1550 -1162 3323 -1892 5231 -2151 996 -136 2044 -136 3040 0 1908
259 3681 989 5231 2151 l130 98 -1009 3 -1008 2 -125 -66 c-909 -487 -2002
-858 -3027 -1029 -471 -78 -824 -114 -1405 -140 l-139 -7 -144 144 c-717 710
-1085 1559 -1186 2738 -16 186 -15 798 0 1000 59 742 166 1375 372 2200 172
692 147 620 635 1800 241 580 440 1062 443 1070 3 9 -2 7 -12 -5 -16 -20 -16
-20 -11 5 23 112 83 479 120 735 64 449 101 797 136 1285 14 202 23 998 14
1215 l-8 180 -38 -135 c-21 -74 -62 -209 -91 -299 -50 -157 -53 -163 -60 -125
-4 21 -7 93 -7 159 -3 437 -80 1139 -182 1647 -134 669 -325 1249 -576 1748
-89 179 -184 345 -170 300z"/>
<path d="M16120 16843 c-454 -1225 -830 -2370 -1064 -3248 -60 -223 -166 -658
-166 -679 0 -15 62 -16 704 -16 l703 0 91 114 c129 161 255 297 443 481 676
657 1614 1194 2783 1594 240 82 528 167 611 181 108 17 322 75 438 119 426
160 687 398 769 700 16 59 21 106 21 206 -1 113 -5 145 -31 245 -37 139 -85
256 -152 370 -27 47 -50 88 -50 92 0 5 -1134 8 -2519 8 l-2519 0 -62 -167z"/>
<path d="M20080 14429 c-804 -47 -1550 -321 -2284 -837 -141 -98 -254 -186
-346 -267 -87 -76 -420 -407 -420 -417 0 -4 435 -8 968 -8 947 0 968 1 1032
21 109 34 377 98 520 124 297 53 366 59 710 60 344 0 449 -9 635 -56 92 -23
110 -35 69 -45 -101 -23 -379 -96 -383 -99 -2 -3 379 -5 847 -5 l852 0 99 55
c265 149 559 251 836 293 l119 18 -129 94 c-1054 764 -2117 1128 -3125 1069z"/>
<path d="M19900 12910 c-43 -7 -42 -7 20 -8 36 0 74 3 85 8 25 11 -37 11 -105
0z"/>
<path d="M14692 5324 c-39 -27 -246 -116 -349 -150 -57 -18 -162 -49 -235 -68
l-133 -34 -3 -62 c-2 -35 -1 -68 1 -74 4 -9 28 -9 90 -2 74 8 89 7 123 -10 58
-28 64 -49 64 -216 l0 -148 259 0 260 0 5 53 c3 28 8 115 11 192 6 136 19 323
31 416 6 48 5 49 -92 111 -6 4 -20 1 -32 -8z"/>
<path d="M1496 5233 c-3 -3 -6 -38 -6 -77 l0 -71 133 -27 c164 -34 194 -43
234 -67 59 -37 67 -66 71 -258 l4 -173 129 0 128 0 3 62 3 63 49 -63 49 -62
373 0 c206 0 374 2 374 4 0 2 -80 105 -177 228 -98 123 -216 274 -263 335
l-85 112 -135 -7 c-177 -9 -625 -9 -766 0 -61 4 -114 5 -118 1z"/>
<path d="M3450 5162 l0 -77 135 -22 c74 -12 154 -31 179 -41 68 -31 76 -53 89
-273 l11 -189 137 0 136 0 7 159 c7 163 21 238 52 272 23 25 113 53 247 74
l107 18 0 79 0 78 -127 -7 c-165 -10 -715 -10 -860 0 l-113 7 0 -78z"/>
<path d="M7330 4863 c-30 -58 -132 -214 -172 -265 l-30 -38 184 0 183 0 18
148 c10 81 21 159 24 175 l5 27 -93 0 -94 0 -25 -47z"/>
<path d="M3920 2547 c0 -2 10 -16 23 -33 l22 -30 85 33 85 32 -107 1 c-60 0
-108 -1 -108 -3z"/>
<path d="M5203 2538 c36 -6 84 -6 125 0 63 9 60 9 -58 10 -112 0 -119 -1 -67
-10z"/>
<path d="M6038 2543 c23 -2 61 -2 85 0 23 2 4 4 -43 4 -47 0 -66 -2 -42 -4z"/>
<path d="M7301 2538 c34 -5 82 -5 120 0 60 9 56 10 -56 10 -107 0 -114 -1 -64
-10z"/>
<path d="M8808 2538 c41 -7 84 -7 120 0 52 9 47 9 -63 9 -115 0 -117 0 -57 -9z"/>
<path d="M9458 2538 c16 -8 28 -8 45 0 19 9 17 11 -23 11 -40 0 -42 -2 -22
-11z"/>
<path d="M12453 2538 c36 -6 84 -6 125 0 63 9 60 9 -58 10 -112 0 -119 -1 -67
-10z"/>
<path d="M13288 2543 c23 -2 61 -2 85 0 23 2 4 4 -43 4 -47 0 -66 -2 -42 -4z"/>
<path d="M26560 2171 c0 -4 15 -41 34 -82 19 -41 48 -121 64 -178 17 -57 35
-108 41 -114 5 -5 65 -12 133 -15 108 -4 131 -2 188 18 157 53 262 147 379
343 l23 37 -170 0 c-125 0 -181 -4 -212 -15 -53 -19 -143 -19 -195 0 -44 16
-285 21 -285 6z"/>
</g>
</svg>
